<?xml version="1.0" encoding="UTF-8"?>
<!DOCTYPE svg PUBLIC "-//W3C//DTD SVG 1.1//EN" "http://www.w3.org/Graphics/SVG/1.1/DTD/svg11.dtd">
<!-- Creator: CorelDRAW -->
<svg xmlns="http://www.w3.org/2000/svg" xml:space="preserve" width="110mm" height="60.712mm" style="shape-rendering:geometricPrecision; text-rendering:geometricPrecision; image-rendering:optimizeQuality; fill-rule:evenodd; clip-rule:evenodd"
viewBox="0 0 110 60.712"
 xmlns:xlink="http://www.w3.org/1999/xlink">
 <defs>
  <style type="text/css">
   <![CDATA[
    .fil0 {fill:#00923F}
   ]]>
  </style>
 </defs>
 <g id="Warstwa_x0020_1">
  <metadata id="CorelCorpID_0Corel-Layer"/>
  <path class="fil0" d="M42.0402 0.1579l0.2259 0 -0.2259 0.4515 0 -0.4515zm67.9598 45.9687c-0.2484,-2.348 -1.0386,-4.922 -2.4385,-7.6314 -4.1995,-6.7959 -8.3765,-13.5692 -12.576,-20.3653 -4.8316,-7.4732 0.4743,-9.3473 7.067,-8.9183 0.9483,0.0452 1.6032,0.0903 2.5513,0.1356 -1.174,-3.1159 -2.0771,-6.2315 -3.2512,-9.3474 -3.1157,0 -6.209,0 -9.3246,0 -2.6869,0 -4.7866,0.3612 -7.3379,1.4451 -7.4057,3.1382 -8.1056,8.6699 -3.5674,17.2496 3.2512,5.1251 6.5024,10.2729 9.7538,15.4206 3.0931,5.893 1.0837,11.6052 -5.9155,11.6052l-42.9208 0 0 14.9917c16.7981,0 33.5509,0 50.3264,0 2.1901,0 4.0415,0.0226 6.1863,-0.474 6.7961,-1.5129 10.8375,-5.5543 11.4471,-11.0408l0 -3.0706zm-67.9598 -15.353c0.9936,6.5024 5.1253,11.8083 15.5336,12.5307 5.6897,0.4065 11.4471,-0.0903 17.1818,-0.1353l0 -43.0111 -10.747 0.1354 0 33.5283c-2.619,-0.0903 -5.2381,0 -7.7443,-0.9935 -4.38,-1.7384 -4.1318,-5.5992 -2.3932,-12.3049 2.1223,-6.8412 4.222,-13.6823 6.3443,-20.5234l-11.3114 0 -4.9446 15.0145c-0.8353,2.6416 -1.5579,5.5541 -1.9192,8.4441l0 7.3152zm-16.7303 -30.6157l16.7303 0 0 0.4515 -16.0981 33.2122 15.3304 0 -3.6575 9.3474 -12.3051 0 0 -43.0111zm16.7303 23.3005c-0.2934,2.4835 -0.3387,4.9897 0,7.3152l0 -7.3152zm0 22.2619l0 14.9917c-5.5766,0 -11.1534,0 -16.7303,0l0 -14.9917 16.7303 0zm-27.8612 -45.5624l11.1309 0 0 43.0111 -16.9786 0 16.2562 -33.5284 -14.9692 0.1356 4.5607 -9.6183zm11.1309 45.5624l0 14.9917c-8.4441,0 -16.8883,0 -25.3099,0l7.2023 -14.9917 18.1076 0z"/>
 </g>
</svg>
